<svg id="Capa_1" enable-background="new 0 0 512 512" height="512" viewBox="0 0 512 512" width="512" xmlns="http://www.w3.org/2000/svg"><g><g><path d="m303.71 59.548v28.905h20.524c15.724 0 28.516 12.792 28.516 28.516v26.177h16.861c5.197 0 10.094 1.297 14.395 3.576v-68.493c0-36.948-29.953-66.901-66.901-66.901h-38.788c15.324 10.569 25.393 28.238 25.393 48.22z" fill="#fb8801"/><path d="m142.389 143.147h16.861v-26.177c0-15.724 12.792-28.516 28.516-28.516h116.944v-28.906c0-32.887-26.661-59.548-59.548-59.548h-112.017c-2.845 0-5.151 2.306-5.151 5.151v141.572c4.301-2.279 9.198-3.576 14.395-3.576z" fill="#fe9901"/><path d="m142.389 142.147h15.861v-25.177c0-10.059 5.036-18.938 12.72-24.267v-87.552c0-2.845 2.306-5.151 5.151-5.151h-42.976c-2.845 0-5.151 2.306-5.151 5.151v140.438c4.325-2.196 9.213-3.442 14.395-3.442z" fill="#fb8801"/></g><g><path d="m453.999 512h-395.998c-5.69 0-10.302-4.612-10.302-10.302v-148.87c0-25.603 20.755-46.358 46.358-46.358h323.885c25.603 0 46.358 20.755 46.358 46.358v148.871c0 5.689-4.612 10.301-10.301 10.301z" fill="#f3f0f3"/></g><g><path d="m95.399 501.698v-148.87c0-10.15 3.271-19.531 8.803-27.166v-.267c0-6.619 1.112-12.98 3.131-18.926h-13.275c-25.603 0-46.358 20.755-46.358 46.358v148.871c0 5.689 4.612 10.302 10.302 10.302h47.7c-5.691 0-10.303-4.612-10.303-10.302z" fill="#e2dee2"/></g><g><g><g><path d="m190.631 267.904c-.689-.495-1.366-1.002-2.036-1.518h-25.383c-32.538 0-59.009 26.471-59.009 59.009v78.654c2.41-.568 4.919-.878 7.5-.878s5.09.31 7.5.878v-78.654c0-24.267 19.742-44.009 44.009-44.009h23.196l4.843-13.037z" fill="#a79ba7"/></g><path d="m407.797 362.09v-36.695c0-32.538-26.471-59.009-59.009-59.009h-25.383c-.67.516-1.347 1.024-2.036 1.518l-.62.445 4.843 13.037h23.196c24.267 0 44.009 19.742 44.009 44.009v36.695c-17.598 3.498-30.905 19.055-30.905 37.665v83.136c0 4.142 3.358 7.5 7.5 7.5h14.333c4.142 0 7.5-3.358 7.5-7.5s-3.358-7.5-7.5-7.5h-6.833v-75.636c0-12.906 10.5-23.406 23.405-23.406s23.406 10.5 23.406 23.406v75.636h-6.833c-4.142 0-7.5 3.358-7.5 7.5s3.358 7.5 7.5 7.5h14.333c4.142 0 7.5-3.358 7.5-7.5v-83.136c0-18.61-13.307-34.167-30.906-37.665z" fill="#a79ba7"/></g><g><g><circle cx="111.702" cy="435.853" fill="#b5adb6" r="26.183"/></g><g><path d="m106.749 435.853c0-10.68 6.398-19.861 15.568-23.934-3.245-1.442-6.835-2.249-10.615-2.249-14.46 0-26.183 11.723-26.183 26.183 0 14.461 11.723 26.183 26.183 26.183 3.78 0 7.37-.807 10.615-2.249-9.169-4.073-15.568-13.253-15.568-23.934z" fill="#a79ba7"/></g><g><path d="m111.703 469.536c-18.573 0-33.683-15.11-33.683-33.683s15.11-33.683 33.683-33.683 33.683 15.11 33.683 33.683-15.111 33.683-33.683 33.683zm0-52.366c-10.302 0-18.683 8.381-18.683 18.683s8.381 18.683 18.683 18.683 18.683-8.381 18.683-18.683-8.382-18.683-18.683-18.683z" fill="#554e56"/></g></g></g><g><path d="m204.634 275.801c-5.045-2.186-9.81-4.899-14.214-8.086l-33.546 90.298c-.873 2.351.073 4.989 2.242 6.248l45.517 26.427v-114.887z" fill="#cbc4cc"/><path d="m204.634 370.263-1-3.032-45.168 36.56c-1.827 1.479-2.421 4.006-1.445 6.144l46.613 102.065 1-4.075z" fill="#e2dee2"/><path d="m355.126 358.013-33.545-90.298c-4.404 3.187-9.169 5.9-14.214 8.086v114.887l45.517-26.427c2.168-1.259 3.115-3.897 2.242-6.248z" fill="#cbc4cc"/><path d="m353.534 403.79-45.168-36.56-1 3.229v137.663l1 3.878 46.613-102.066c.976-2.138.382-4.665-1.445-6.144z" fill="#e2dee2"/></g><g><path d="m307.366 338.173-47.282-43.916c-1.113-1.034-2.563-1.604-4.083-1.604s-2.97.569-4.083 1.604l-47.282 43.916-1 2.294v171.533h104.732v-171.533z" fill="#8ac9fe"/></g><g><g><path d="m258.22 349.656c-.664.425-1.432.649-2.22.649s-1.556-.224-2.22-.649l-12.554-8.031-13.295 170.375h56.138l-13.294-170.375z" fill="#fd8087"/></g></g><g><path d="m258.776 350.524c-1.692 1.082-3.859 1.082-5.551 0l-12.09-7.734-13.204 169.21h21.38l12.765-163.587z" fill="#fe646f"/></g><g><path d="m260.083 294.257c-1.113-1.034-2.563-1.604-4.083-1.604s-2.97.569-4.083 1.604l-25.323 23.52v12.891c0 1.757.895 3.392 2.375 4.339l24.256 15.517c1.692 1.083 3.859 1.083 5.552 0l24.256-15.517c1.48-.947 2.375-2.582 2.375-4.339v-12.891z" fill="#fe646f"/></g><g><path d="m250.134 324.324c-1.48-.947-2.375-2.582-2.375-4.339v-20.5l-21.165 19.658v11.526c0 1.757.895 3.392 2.375 4.339l24.256 15.517c1.692 1.082 3.859 1.082 5.551 0l16.202-10.365c-.201-.094-.398-.197-.588-.319z" fill="#fd4755"/></g><path d="m277.665 281.954h-43.33c-10.935 0-21.321-2.369-30.701-6.59v65.104l48.963-45.477c1.919-1.782 4.887-1.782 6.805 0l48.963 45.477v-65.104c-9.379 4.22-19.765 6.59-30.7 6.59z" fill="#60b7ff"/><g><path d="m159.25 206.869v-64.721h-16.861c-17.59 0-31.85 14.26-31.85 31.85v9.612c0 17.59 14.26 31.85 31.85 31.85h17.367c-.323-2.822-.506-5.685-.506-8.591z" fill="#fed2a4"/><path d="m369.611 142.147h-16.861v64.721c0 2.906-.183 5.77-.506 8.591h17.367c17.59 0 31.85-14.26 31.85-31.85v-9.612c0-17.59-14.26-31.85-31.85-31.85z" fill="#ffbd86"/></g><g><path d="m277.665 282.954h-43.33c-42.021 0-76.085-34.064-76.085-76.085v-89.899c0-16.301 13.215-29.516 29.516-29.516h136.468c16.301 0 29.516 13.215 29.516 29.516v89.899c0 42.02-34.064 76.085-76.085 76.085z" fill="#fed2a4"/></g><g><path d="m190.303 206.869v-89.899c0-16.301 13.215-29.516 29.516-29.516h-32.053c-16.301 0-29.516 13.215-29.516 29.516v89.899c0 42.02 34.064 76.085 76.085 76.085h32.053c-42.021 0-76.085-34.065-76.085-76.085z" fill="#ffbd86"/></g><g><g><path d="m209.642 184.558c-4.142 0-7.5-3.358-7.5-7.5v-22.11c0-4.142 3.358-7.5 7.5-7.5s7.5 3.358 7.5 7.5v22.11c0 4.142-3.358 7.5-7.5 7.5z" fill="#bb5d4c"/></g><g><path d="m302.358 184.558c-4.142 0-7.5-3.358-7.5-7.5v-22.11c0-4.142 3.358-7.5 7.5-7.5s7.5 3.358 7.5 7.5v22.11c0 4.142-3.358 7.5-7.5 7.5z" fill="#bb5d4c"/></g></g><g><path d="m256 206.668h-11.637c-2.375 0-4.609-1.125-6.023-3.031-1.415-1.907-1.843-4.372-1.154-6.644l11.637-38.402c1.201-3.965 5.388-6.204 9.353-5.003 3.964 1.201 6.204 5.389 5.003 9.353l-8.705 28.727h1.526c4.142 0 7.5 3.358 7.5 7.5s-3.358 7.5-7.5 7.5z" fill="#bb5d4c"/></g><g><path d="m256 249.551c-14.969 0-29.937-5.698-41.333-17.093-2.929-2.929-2.929-7.678 0-10.606 2.929-2.929 7.678-2.929 10.606 0 16.942 16.942 44.51 16.942 61.452 0 2.929-2.929 7.678-2.929 10.606 0 2.929 2.929 2.929 7.678 0 10.606-11.394 11.396-26.362 17.093-41.331 17.093z" fill="#bb5d4c"/></g></g></svg>